<?xml version="1.0" encoding="UTF-8" standalone="no"?>
<svg
   xmlns:osb="http://www.openswatchbook.org/uri/2009/osb"
   xmlns:dc="http://purl.org/dc/elements/1.1/"
   xmlns:cc="http://creativecommons.org/ns#"
   xmlns:rdf="http://www.w3.org/1999/02/22-rdf-syntax-ns#"
   xmlns:svg="http://www.w3.org/2000/svg"
   xmlns="http://www.w3.org/2000/svg"
   xmlns:xlink="http://www.w3.org/1999/xlink"
   xmlns:sodipodi="http://sodipodi.sourceforge.net/DTD/sodipodi-0.dtd"
   xmlns:inkscape="http://www.inkscape.org/namespaces/inkscape"
   width="804"
   height="1001"
   viewBox="0 0 212.725 264.84792"
   version="1.1"
   id="svg8"
   inkscape:version="1.0.1 (3bc2e813f5, 2020-09-07)"
   sodipodi:docname="login01.svg">
  <defs
     id="defs2">
    <linearGradient
       inkscape:collect="always"
       id="linearGradient2072">
      <stop
         style="stop-color:#f9ecff;stop-opacity:0.13942234"
         offset="0"
         id="stop2068" />
      <stop
         style="stop-color:#3cfaff;stop-opacity:0.39607847"
         offset="1"
         id="stop2070" />
    </linearGradient>
    <linearGradient
       inkscape:collect="always"
       id="linearGradient2066">
      <stop
         style="stop-color:#b2fcff;stop-opacity:0.40000001"
         offset="0"
         id="stop2062" />
      <stop
         style="stop-color:#b2fcff;stop-opacity:0"
         offset="1"
         id="stop2064" />
    </linearGradient>
    <linearGradient
       inkscape:collect="always"
       id="linearGradient1892">
      <stop
         style="stop-color:#f9ecff;stop-opacity:0.13942234"
         offset="0"
         id="stop1888" />
      <stop
         style="stop-color:#4ce6da;stop-opacity:0.29803923"
         offset="1"
         id="stop1890" />
    </linearGradient>
    <linearGradient
       inkscape:collect="always"
       id="linearGradient1886">
      <stop
         style="stop-color:#004da2;stop-opacity:0.40000001"
         offset="0"
         id="stop1882" />
      <stop
         style="stop-color:#8598ad;stop-opacity:0.49411765"
         offset="1"
         id="stop1884" />
    </linearGradient>
    <linearGradient
       inkscape:collect="always"
       id="linearGradient3710">
      <stop
         style="stop-color:#ffffff;stop-opacity:1;"
         offset="0"
         id="stop3706" />
      <stop
         style="stop-color:#ffffff;stop-opacity:0;"
         offset="1"
         id="stop3708" />
    </linearGradient>
    <linearGradient
       id="linearGradient3684"
       osb:paint="solid">
      <stop
         style="stop-color:#ffffff;stop-opacity:1;"
         offset="0"
         id="stop3682" />
    </linearGradient>
    <linearGradient
       id="linearGradient3456"
       osb:paint="solid">
      <stop
         style="stop-color:#000000;stop-opacity:1;"
         offset="0"
         id="stop3454" />
    </linearGradient>
    <marker
       style="overflow:visible"
       id="Arrow1Lstart"
       refX="0"
       refY="0"
       orient="auto"
       inkscape:stockid="Arrow1Lstart"
       inkscape:isstock="true">
      <path
         transform="matrix(0.8,0,0,0.8,10,0)"
         style="fill:#7900a2;fill-opacity:1;fill-rule:evenodd;stroke:#000000;stroke-width:1pt;stroke-opacity:0"
         d="M 0,0 5,-5 -12.5,0 5,5 Z"
         id="path2988" />
    </marker>
    <linearGradient
       inkscape:collect="always"
       id="linearGradient2984">
      <stop
         style="stop-color:#7900a2;stop-opacity:0.40113452"
         offset="0"
         id="stop2980" />
      <stop
         style="stop-color:#ad85ab;stop-opacity:0.49217501"
         offset="1"
         id="stop2982" />
    </linearGradient>
    <linearGradient
       id="linearGradient984"
       osb:paint="solid">
      <stop
         style="stop-color:#4e7b82;stop-opacity:1;"
         offset="0"
         id="stop982" />
    </linearGradient>
    <clipPath
       id="_clipPath_mnGqm9sVpSKdMaeHw6uMP5JMWXSD3Uia">
      <rect
         width="1280"
         height="800"
         id="rect2"
         x="0"
         y="0" />
    </clipPath>
    <linearGradient
       inkscape:collect="always"
       xlink:href="#linearGradient2984"
       id="linearGradient2986"
       x1="120.53378"
       y1="91.424042"
       x2="838.83087"
       y2="105.78883"
       gradientUnits="userSpaceOnUse"
       gradientTransform="matrix(0.75000002,0,0,0.75000002,-0.50196043,0)" />
    <linearGradient
       inkscape:collect="always"
       xlink:href="#linearGradient1886"
       id="linearGradient3554"
       gradientUnits="userSpaceOnUse"
       gradientTransform="matrix(0.66286874,0,0,0.75000002,31.019432,0)"
       x1="128.87845"
       y1="100.9757"
       x2="812.1778"
       y2="104.2551" />
    <linearGradient
       inkscape:collect="always"
       xlink:href="#linearGradient2066"
       id="linearGradient3554-3"
       gradientUnits="userSpaceOnUse"
       gradientTransform="matrix(-0.71228022,0,0,-0.75000002,642.43271,755.20491)"
       x1="128.87845"
       y1="100.9757"
       x2="812.1778"
       y2="104.2551" />
    <linearGradient
       inkscape:collect="always"
       xlink:href="#linearGradient1892"
       id="linearGradient3554-3-3"
       gradientUnits="userSpaceOnUse"
       gradientTransform="matrix(-0.7122718,0,0,-0.35884835,642.43272,754.71407)"
       x1="128.87845"
       y1="100.9757"
       x2="812.1778"
       y2="104.2551" />
    <linearGradient
       inkscape:collect="always"
       xlink:href="#linearGradient2072"
       id="linearGradient3554-3-3-9"
       gradientUnits="userSpaceOnUse"
       gradientTransform="matrix(0.71135889,0,0,0.35884835,35.741314,-0.41893005)"
       x1="112.71496"
       y1="120.80572"
       x2="812.1778"
       y2="104.2551" />
    <linearGradient
       inkscape:collect="always"
       xlink:href="#linearGradient3710"
       id="linearGradient3712"
       x1="52.470974"
       y1="76.600357"
       x2="108.65946"
       y2="76.600357"
       gradientUnits="userSpaceOnUse"
       gradientTransform="translate(1.64664,0.0314)" />
    <linearGradient
       inkscape:collect="always"
       xlink:href="#linearGradient3710"
       id="linearGradient3712-0"
       x1="52.470974"
       y1="76.600357"
       x2="108.65946"
       y2="76.600357"
       gradientUnits="userSpaceOnUse"
       gradientTransform="matrix(1.5434767,0,0,1.5434767,388.42388,30.098768)" />
    <linearGradient
       inkscape:collect="always"
       xlink:href="#linearGradient3710"
       id="linearGradient3712-0-0"
       x1="52.470974"
       y1="76.600357"
       x2="108.65946"
       y2="76.600357"
       gradientUnits="userSpaceOnUse"
       gradientTransform="matrix(1.5434767,0,0,1.5434767,11.232739,538.7335)" />
    <linearGradient
       inkscape:collect="always"
       xlink:href="#linearGradient3710"
       id="linearGradient3712-0-0-1"
       x1="52.470974"
       y1="76.600357"
       x2="108.65946"
       y2="76.600357"
       gradientUnits="userSpaceOnUse"
       gradientTransform="matrix(0.87636605,0,0,0.87636605,521.04683,691.28849)" />
  </defs>
  <sodipodi:namedview
     id="base"
     pagecolor="#ffffff"
     bordercolor="#666666"
     borderopacity="1.0"
     inkscape:pageopacity="0.0"
     inkscape:pageshadow="2"
     inkscape:zoom="0.7"
     inkscape:cx="377.30702"
     inkscape:cy="520.56315"
     inkscape:document-units="mm"
     inkscape:current-layer="layer2"
     inkscape:document-rotation="0"
     showgrid="false"
     units="px"
     inkscape:window-width="1853"
     inkscape:window-height="1025"
     inkscape:window-x="67"
     inkscape:window-y="27"
     inkscape:window-maximized="1" />
  <metadata
     id="metadata5">
    <rdf:RDF>
      <cc:Work
         rdf:about="">
        <dc:format>image/svg+xml</dc:format>
        <dc:type
           rdf:resource="http://purl.org/dc/dcmitype/StillImage" />
        <dc:title></dc:title>
      </cc:Work>
    </rdf:RDF>
  </metadata>
  <g
     inkscape:groupmode="layer"
     id="layer2"
     inkscape:label="Layer 2">
    <rect
       style="fill:#15c6cf;fill-opacity:1;stroke:#a20000;stroke-width:0;stroke-opacity:0.658824"
       id="rect834"
       width="213.7532"
       height="266.4101"
       x="-0.16725631"
       y="-0.012769161" />
    <g
       style="isolation:isolate"
       id="g1628"
       transform="matrix(0.35277777,0,0,0.35277777,-12.778257,0.30982789)">
      <path
         style="color:#000000;font-style:normal;font-variant:normal;font-weight:normal;font-stretch:normal;font-size:medium;line-height:normal;font-family:sans-serif;font-variant-ligatures:normal;font-variant-position:normal;font-variant-caps:normal;font-variant-numeric:normal;font-variant-alternates:normal;font-variant-east-asian:normal;font-feature-settings:normal;font-variation-settings:normal;text-indent:0;text-align:start;text-decoration:none;text-decoration-line:none;text-decoration-style:solid;text-decoration-color:#000000;letter-spacing:normal;word-spacing:normal;text-transform:none;writing-mode:lr-tb;direction:ltr;text-orientation:mixed;dominant-baseline:auto;baseline-shift:baseline;text-anchor:start;white-space:normal;shape-padding:0;shape-margin:0;inline-size:0;clip-rule:nonzero;display:inline;overflow:visible;visibility:visible;opacity:1;isolation:auto;mix-blend-mode:normal;color-interpolation:sRGB;color-interpolation-filters:linearRGB;solid-color:#000000;solid-opacity:1;vector-effect:none;fill:url(#linearGradient3554-3);fill-opacity:1.0;fill-rule:nonzero;stroke:none;stroke-width:0;stroke-linecap:butt;stroke-linejoin:bevel;stroke-miterlimit:4;stroke-dasharray:none;stroke-dashoffset:0;stroke-opacity:1;color-rendering:auto;image-rendering:auto;shape-rendering:auto;text-rendering:auto;enable-background:accumulate;stop-color:#000000;stop-opacity:1"
         d="m 180.76095,557.99154 c 12.46371,2.14018 24.17361,0.0589 59.64205,25.16035 219.83654,163.72423 325.35025,-70.76322 400.33985,-13.59705 l 1.21315,9.01846 v 87.84522 87.84522 H 338.81045 35.664904 l 0.537724,-57.47452 -2.101549,-49.73072 c 0,0 4.384787,-10.97907 6.955939,-16.27711 1.343265,-2.76788 13.232114,-22.87737 19.718793,-29.47961 21.596165,-21.98091 45.532559,-35.95091 72.524589,-42.32755 9.56324,-2.25922 36.74841,-2.82211 47.46055,-0.98269 z"
         id="path3550-5"
         sodipodi:nodetypes="scccccccccssss" />
      <path
         style="color:#000000;font-style:normal;font-variant:normal;font-weight:normal;font-stretch:normal;font-size:medium;line-height:normal;font-family:sans-serif;font-variant-ligatures:normal;font-variant-position:normal;font-variant-caps:normal;font-variant-numeric:normal;font-variant-alternates:normal;font-variant-east-asian:normal;font-feature-settings:normal;font-variation-settings:normal;text-indent:0;text-align:start;text-decoration:none;text-decoration-line:none;text-decoration-style:solid;text-decoration-color:#000000;letter-spacing:normal;word-spacing:normal;text-transform:none;writing-mode:lr-tb;direction:ltr;text-orientation:mixed;dominant-baseline:auto;baseline-shift:baseline;text-anchor:start;white-space:normal;shape-padding:0;shape-margin:0;inline-size:0;clip-rule:nonzero;display:inline;overflow:visible;visibility:visible;opacity:1;isolation:auto;mix-blend-mode:normal;color-interpolation:sRGB;color-interpolation-filters:linearRGB;solid-color:#000000;solid-opacity:1;vector-effect:none;fill:url(#linearGradient3554-3-3);fill-opacity:1;fill-rule:nonzero;stroke:none;stroke-width:0;stroke-linecap:butt;stroke-linejoin:bevel;stroke-miterlimit:4;stroke-dasharray:none;stroke-dashoffset:0;stroke-opacity:1;color-rendering:auto;image-rendering:auto;shape-rendering:auto;text-rendering:auto;enable-background:accumulate;stop-color:#000000;stop-opacity:1"
         d="m 180.76641,660.35447 c 12.46356,1.024 24.17333,0.0282 59.64134,12.03833 219.83394,78.33623 325.34641,-33.85769 400.33512,-6.5057 l 1.21313,4.31501 v 42.03081 42.03082 H 338.81404 35.672087 l 0.537723,-27.49951 -2.101521,-23.79438 c 0,0 4.384735,-5.2531 6.955854,-7.78802 1.343245,-1.32434 13.231963,-10.94601 19.718563,-14.10495 21.595905,-10.51709 45.532004,-17.20123 72.523724,-20.25223 9.56311,-1.08096 36.74796,-1.35028 47.45998,-0.47018 z"
         id="path3550-5-2"
         sodipodi:nodetypes="scccccccccssss" />
      <path
         style="color:#000000;font-style:normal;font-variant:normal;font-weight:normal;font-stretch:normal;font-size:medium;line-height:normal;font-family:sans-serif;font-variant-ligatures:normal;font-variant-position:normal;font-variant-caps:normal;font-variant-numeric:normal;font-variant-alternates:normal;font-variant-east-asian:normal;font-feature-settings:normal;font-variation-settings:normal;text-indent:0;text-align:start;text-decoration:none;text-decoration-line:none;text-decoration-style:solid;text-decoration-color:#000000;letter-spacing:normal;word-spacing:normal;text-transform:none;writing-mode:lr-tb;direction:ltr;text-orientation:mixed;dominant-baseline:auto;baseline-shift:baseline;text-anchor:start;white-space:normal;shape-padding:0;shape-margin:0;inline-size:0;clip-rule:nonzero;display:inline;overflow:visible;visibility:visible;opacity:1;isolation:auto;mix-blend-mode:normal;color-interpolation:sRGB;color-interpolation-filters:linearRGB;solid-color:#000000;solid-opacity:1;vector-effect:none;fill:url(#linearGradient3554-3-3-9);fill-opacity:1.0;fill-rule:nonzero;stroke:none;stroke-width:0;stroke-linecap:butt;stroke-linejoin:bevel;stroke-miterlimit:4;stroke-dasharray:none;stroke-dashoffset:0;stroke-opacity:1;color-rendering:auto;image-rendering:auto;shape-rendering:auto;text-rendering:auto;enable-background:accumulate;stop-color:#000000;stop-opacity:1"
         d="m 496.81592,93.94067 c -12.44758,-1.024 -24.14235,-0.0282 -59.5649,-12.03833 C 217.69883,3.5661 112.3216,115.76003 37.429008,88.40804 L 36.217426,84.09303 V 42.06222 0.03139995 H 338.97085 641.72429 l -0.53704,27.49951005 2.09884,23.79438 c 0,0 -4.37912,5.2531 -6.94694,7.78802 -1.34153,1.32434 -13.215,10.94601 -19.69329,14.10495 -21.56824,10.51709 -45.47366,17.20123 -72.43079,20.25223 -9.55085,1.08096 -36.70086,1.35028 -47.39915,0.47018 z"
         id="path3550-5-2-7"
         sodipodi:nodetypes="scccccccccssss" />
      <path
         sodipodi:type="spiral"
         style="fill:none;fill-rule:evenodd;stroke:url(#linearGradient3712);stroke-width:0.493071"
         id="path3636"
         sodipodi:cx="79.531693"
         sodipodi:cy="76.790764"
         sodipodi:expansion="1"
         sodipodi:revolution="3"
         sodipodi:radius="32.322918"
         sodipodi:argument="-17.827784"
         sodipodi:t0="0"
         d="m 79.531693,76.790764 c 0.845728,1.382444 -1.446255,1.822074 -2.297714,1.405656 -2.307399,-1.128467 -1.947151,-4.345353 -0.513599,-6.001082 2.56429,-2.961711 7.202515,-2.263794 9.704452,0.378458 3.671693,3.87761 2.599996,10.102112 -1.270515,13.40782 -5.158783,4.405988 -13.017258,2.945145 -17.11119,-2.162572 -5.151795,-6.427539 -3.295044,-15.939929 3.054629,-20.814558 7.690304,-5.903829 18.866865,-3.647718 24.517928,3.946685 6.659586,8.949741 4.002136,21.796462 -4.838743,28.221297 C 80.569797,102.5902 66.049106,99.530187 58.852275,89.441669 50.674778,77.978453 54.13816,61.781214 65.475131,53.813633 c 12.718369,-8.938421 30.593983,-5.0711 39.331409,7.514914 9.70019,13.97286 5.42852,33.528194 -8.406974,43.034773" />
      <path
         sodipodi:type="spiral"
         style="isolation:isolate;fill:none;fill-rule:evenodd;stroke:url(#linearGradient3712-0);stroke-width:0.761044"
         id="path3636-6"
         sodipodi:cx="508.63763"
         sodipodi:cy="148.57504"
         sodipodi:expansion="1"
         sodipodi:revolution="3"
         sodipodi:radius="49.889671"
         sodipodi:argument="-17.827784"
         sodipodi:t0="0"
         d="m 508.63763,148.57504 c 1.30537,2.13377 -2.23226,2.81233 -3.54646,2.1696 -3.56142,-1.74176 -3.00539,-6.70695 -0.79273,-9.26253 3.95792,-4.57133 11.11691,-3.49411 14.97859,0.58414 5.66718,5.985 4.01304,15.59238 -1.96101,20.69466 -7.96246,6.80054 -20.09183,4.54576 -26.41072,-3.33788 -7.95168,-9.92076 -5.08582,-24.60291 4.71475,-32.12679 11.8698,-9.11242 29.12057,-5.63016 37.84285,6.09162 10.27891,13.81372 6.1772,33.64233 -7.46849,43.55892 -15.75448,11.44908 -38.16683,6.72603 -49.27498,-8.84536 -12.62177,-17.69321 -7.27612,-42.69327 10.22223,-54.99104 19.6305,-13.796249 47.2211,-7.82713 60.70711,11.59909 14.97202,21.56679 8.3788,51.74999 -12.97597,66.42317" />
      <path
         sodipodi:type="spiral"
         style="isolation:isolate;fill:none;fill-rule:evenodd;stroke:url(#linearGradient3712-0-0);stroke-width:0.761047"
         id="path3636-6-6"
         sodipodi:cx="131.44649"
         sodipodi:cy="657.20978"
         sodipodi:expansion="1"
         sodipodi:revolution="3"
         sodipodi:radius="49.889671"
         sodipodi:argument="-17.827784"
         sodipodi:t0="0"
         d="m 131.44649,657.20978 c 1.30536,2.13377 -2.23226,2.81233 -3.54647,2.1696 -3.56142,-1.74177 -3.00538,-6.70696 -0.79273,-9.26254 3.95792,-4.57133 11.11692,-3.49411 14.9786,0.58415 5.66717,5.985 4.01303,15.59237 -1.96101,20.69465 -7.96246,6.80054 -20.09184,4.54577 -26.41073,-3.33787 -7.95167,-9.92076 -5.08582,-24.60292 4.71475,-32.12679 11.86981,-9.11242 29.12057,-5.63017 37.84285,6.09162 10.27891,13.81371 6.17721,33.64233 -7.46848,43.55891 -15.75449,11.44909 -38.16684,6.72604 -49.274982,-8.84535 -12.621776,-17.69321 -7.276126,-42.69327 10.222222,-54.99105 19.63051,-13.79624 47.2211,-7.82712 60.70711,11.5991 14.97202,21.56678 8.3788,51.74998 -12.97596,66.42317" />
      <path
         sodipodi:type="spiral"
         style="isolation:isolate;fill:none;fill-rule:evenodd;stroke:url(#linearGradient3712-0-0-1);stroke-width:0.432113"
         id="path3636-6-6-9"
         sodipodi:cx="589.30267"
         sodipodi:cy="758.5578"
         sodipodi:expansion="1"
         sodipodi:revolution="3"
         sodipodi:radius="28.326708"
         sodipodi:argument="-17.827784"
         sodipodi:t0="0"
         d="m 589.30267,758.5578 c 0.74117,1.21153 -1.26745,1.5968 -2.01363,1.23187 -2.02213,-0.98895 -1.70642,-3.80812 -0.45011,-5.25915 2.24726,-2.59554 6.31204,-1.98391 8.50466,0.33167 3.21774,3.39821 2.27855,8.85315 -1.11344,11.75016 -4.52098,3.86126 -11.40788,2.58103 -14.99567,-1.8952 -4.51485,-5.63288 -2.88766,-13.96922 2.67698,-18.24118 6.73952,-5.17391 16.53428,-3.19673 21.48668,3.45875 5.83623,7.84324 3.50733,19.10167 -4.24051,24.73218 -8.9452,6.50065 -21.67064,3.81896 -27.9777,-5.02228 -7.16648,-10.04597 -4.13129,-24.24068 5.80405,-31.2232 11.14595,-7.83333 26.81153,-4.44414 34.46871,6.58582 8.50092,12.24534 4.75737,29.38297 -7.36759,37.71421" />
      <path
         style="fill:#5edfff;fill-opacity:0.29803923;stroke:#a20000;stroke-width:0;stroke-opacity:0.658824"
         d="M 452.85606,856.03229 C 396.614,850.34144 340.80877,826.92234 279.28463,783.1917 c -46.7075,-33.19913 -65.57956,-39.68484 -115,-39.52167 -20.38818,0.0673 -27.31291,0.6419 -37.53789,3.11477 -30.875741,7.46714 -61.268189,24.49164 -87.455777,48.98884 -10.29721,9.63255 -26.890225,33.21735 -34.5009883,49.03866 l -4.79106273,9.9597 V 557.49634 260.22069 L 7.283152,259.2544 c 18.606956,-2.4683 43.859829,-13.64264 95.572898,-42.29081 37.96368,-21.03123 73.35766,-38.08891 95.71429,-46.12826 81.18749,-29.19471 156.96733,-25.66204 238.57143,11.12162 24.98063,11.2602 47.63956,24.36619 81.29136,47.01914 28.27688,19.03479 48.70493,28.67772 68.26703,32.225 29.28202,5.30985 72.94472,4.37287 94.98464,-2.03832 34.28464,-9.97306 69.52203,-31.09264 91.48244,-54.83014 9.26729,-10.01721 25.38137,-33.7945 30.42987,-44.90109 l 3.38007,-7.43608 0.0823,303.92857 c 0.0453,167.16071 -0.25291,303.92857 -0.66261,303.92857 -0.4097,0 -3.24018,-1.65128 -6.28993,-3.66951 -8.14292,-5.38873 -17.62302,-7.75906 -31.03226,-7.75906 -22.25533,0 -42.72096,8.65914 -101.9329,43.12844 -59.33601,34.54155 -90.53054,48.62012 -127.85714,57.70397 -26.61042,6.47593 -61.98456,9.2492 -86.42857,6.77585 z"
         id="path2008"
         transform="matrix(0.75000002,0,0,0.75000002,36.221832,-0.87825231)" />
      <path
         style="fill:#5edfff;fill-opacity:0.298039;stroke:#a20000;stroke-width:0;stroke-opacity:0.658824"
         d="m 454.99891,855.42697 c -31.2895,-2.33498 -68.52361,-13.0845 -102.99841,-29.73573 -25.31113,-12.22518 -37.67009,-19.58307 -73.74895,-43.90631 -50.34798,-33.94304 -63.38002,-38.3119 -113.96692,-38.20631 -31.58235,0.0658 -41.02717,1.80952 -64.411254,11.89095 -42.260581,18.21953 -72.90283,46.35765 -93.9695672,86.2902 l -5.90489683,11.1929 V 557.07209 c 0,-235.49152 0.36446343,-295.98031 1.78571433,-296.36918 0.9821428,-0.26872 5.9008711,-1.25813 10.9305067,-2.19868 16.722309,-3.12712 44.942656,-16.1158 97.998067,-45.10454 28.93687,-15.81071 59.43408,-30.66027 78.57143,-38.25764 69.20357,-27.47324 139.30055,-30.14169 207.72835,-7.9078 37.71905,12.25585 68.00542,27.50994 112.98593,56.90672 30.71099,20.071 53.30119,31.75756 68.99436,35.69277 22.92733,5.74925 58.91624,6.85176 88.01007,2.69618 33.03269,-4.71818 77.60013,-28.52233 102.99557,-55.0115 11.5214,-12.0176 24.47895,-29.81774 31.99287,-43.94948 l 3.41833,-6.42901 0.87076,4.57062 c 0.86961,4.56474 -0.16563,595.35907 -1.0448,596.23822 -0.25536,0.25537 -4.27033,-1.62251 -8.92216,-4.17307 -8.26635,-4.53238 -8.86218,-4.63738 -26.315,-4.63738 -15.1513,0 -19.37241,0.5217 -27.85714,3.44291 -12.83544,4.41914 -45.69737,21.30996 -79.28571,40.75234 -34.82952,20.16082 -72.55988,38.88106 -92.94368,46.1148 -36.03225,12.78702 -78.51807,18.69463 -114.91347,15.9786 z"
         id="path2010"
         transform="matrix(0.75000002,0,0,0.75000002,36.221832,-0.87825231)" />
      <path
         style="fill:#5edfff;fill-opacity:0.298039;stroke:#a20000;stroke-width:0;stroke-opacity:0.658824"
         d="m 449.99891,854.68609 c -14.93121,-1.87962 -37.55285,-6.9662 -53.1343,-11.9475 -36.98771,-11.82475 -63.86093,-25.56445 -111.8657,-57.19452 -49.00618,-32.28988 -62.52663,-38.44467 -90.83426,-41.34958 -53.77592,-5.51846 -87.80695,2.36624 -128.754055,29.8312 -24.096919,16.16281 -44.02033,38.30454 -58.2678083,64.75548 -3.2799203,6.08929 -6.23486444,11.07143 -6.56654259,11.07143 -0.76269057,0 -0.36134271,-425.72721 0.48912819,-518.83948 l 0.6352917,-69.55378 7.3634097,-1.55012 c 20.8026293,-4.37931 41.9208373,-13.85745 98.7919763,-44.33919 66.34552,-35.55979 100.3595,-49.44296 139.6778,-57.01098 67.5245,-12.99717 134.50233,-2.80541 201.26466,30.62566 20.46419,10.24739 29.85782,15.71298 62.62897,36.44004 54.904,34.72561 67.9994,39.07681 117.85715,39.16032 31.31581,0.0524 42.59687,-1.38475 61.29871,-7.80938 22.04103,-7.57174 41.15322,-17.77128 60.49886,-32.28624 18.9214,-14.19664 35.59623,-33.50883 48.53174,-56.20772 l 6.11319,-10.72725 -0.0402,282.12049 c -0.0221,155.16627 -0.4429,289.95755 -0.93511,299.53619 l -0.89493,17.4157 -7.28614,-3.77747 c -6.28907,-3.26056 -9.45142,-3.85552 -23.10897,-4.3477 -11.37902,-0.41009 -18.40023,0.0723 -25,1.71735 -11.84775,2.95329 -43.73179,18.66055 -84.17717,41.46878 -70.04872,39.50232 -104.22762,53.43911 -147.31796,60.07034 -14.53294,2.2365 -57.09802,3.97037 -66.96776,2.72793 z"
         id="path2012"
         transform="matrix(0.75000002,0,0,0.75000002,36.221832,-0.87825231)" />
      <path
         style="fill:#5edfff;fill-opacity:0.298039;stroke:#a20000;stroke-width:0;stroke-opacity:0.658824"
         d="m 439.1722,852.69352 c -16.94033,-3.07835 -48.12984,-11.96218 -63.4212,-18.0645 -29.22007,-11.66088 -47.59585,-21.7764 -94.23229,-51.87323 -54.58926,-35.22919 -62.59503,-38.19942 -106.72793,-39.59726 -39.4797,-1.25046 -59.85054,2.91837 -88.894741,18.19201 C 52.643092,778.83749 28.106466,802.2079 9.3846143,834.22543 L 1.8826295,847.05509 1.0039927,804.52527 C 0.04687068,758.19644 1.159133,273.34555 2.2390501,266.1462 c 0.6122264,-4.08145 1.2916899,-4.55897 8.8543439,-6.22265 18.068692,-3.97488 41.336432,-14.65278 104.885246,-48.13337 84.993,-44.77842 127.10141,-57.65186 188.57653,-57.65186 64.3154,0 122.78254,19.33644 194.72946,64.40157 50.91547,31.89174 67.01778,39.87979 89.44428,44.37163 5.85,1.17171 20.92463,1.82132 41.98429,1.80922 36.3462,-0.0209 45.4546,-1.42628 68.6684,-10.59535 44.06973,-17.40681 75.50343,-43.99065 100.49184,-84.98707 l 6.09526,-10 -0.78617,295.80901 c -0.4324,162.69494 -1.16746,296.80263 -1.63349,298.01706 -0.73474,1.91473 -2.009,1.73881 -9.5925,-1.32429 -8.1335,-3.28527 -10.05161,-3.48746 -27.42284,-2.8906 -14.96902,0.51432 -20.21583,1.27003 -26.42439,3.80597 -12.44007,5.08127 -44.1294,21.36203 -77.96754,40.05672 -67.64861,37.3741 -100.86139,51.13857 -140,58.02064 -15.11511,2.65781 -71.91963,4.06864 -82.96957,2.06069 z"
         id="path2014"
         transform="matrix(0.75000002,0,0,0.75000002,36.221832,-0.87825231)" />
      <path
         style="fill:#5edfff;fill-opacity:0.298039;stroke:#a20000;stroke-width:0;stroke-opacity:0.658824"
         d="m 417.85606,847.15089 c -11.78572,-3.09963 -27.21429,-7.64817 -34.28572,-10.10789 -20.30901,-7.06423 -53.42961,-24.12706 -82.14286,-42.31774 -65.77754,-41.67202 -75.11637,-46.41757 -98.19018,-49.89554 -18.4829,-2.78599 -56.34033,-2.75939 -72.45572,0.0509 -26.9624,4.70186 -57.720037,20.33193 -83.799992,42.58457 C 34.385846,798.21242 21.583252,813.6785 11.151559,830.74936 5.1807718,840.52019 3.4846737,842.43117 2.6465158,840.3319 1.6332431,837.79407 1.5128188,319.81216 2.5166353,281.67531 l 0.4972532,-18.89158 10.2782265,-2.97227 c 22.414713,-6.4819 31.976236,-10.9587 116.706795,-54.64337 65.08693,-33.55697 102.09837,-45.74193 150.93004,-49.6894 56.05895,-4.53171 110.66718,6.9404 167.47019,35.18216 19.31627,9.60382 32.11337,16.9753 78.02834,44.94648 38.88612,23.68924 53.29633,28.30448 92.14286,29.51113 44.74983,1.39002 65.92559,-2.54737 97.50217,-18.12942 33.09213,-16.32993 57.94376,-38.19454 78.18673,-68.78916 l 11.58629,-17.51117 -0.79203,249.22481 c -0.74119,233.21924 -1.62259,342.69755 -2.76826,343.84324 -0.26746,0.26746 -3.94487,-0.88413 -8.17203,-2.55907 -6.84664,-2.71287 -9.86923,-2.98726 -27.68573,-2.51337 l -20,0.53195 -16.07868,7.3341 c -8.84327,4.03376 -32.62899,16.32505 -52.85714,27.31399 -69.17346,37.57846 -88.599,46.91561 -117.94495,56.69188 -28.21387,9.39913 -38.94174,10.92389 -81.69065,11.61066 l -38.57143,0.61966 z"
         id="path2016"
         transform="matrix(0.75000002,0,0,0.75000002,36.221832,-0.87825231)" />
      <path
         style="fill:#5edfff;fill-opacity:0.298039;stroke:#a20000;stroke-width:0;stroke-opacity:0.658824"
         d="M 420.7132,847.59026 C 373.30774,835.0836 347.17798,822.90849 287.09288,785.33017 224.43494,746.14273 219.40264,744.23503 175.66701,743.08953 c -32.67891,-0.8559 -47.55807,0.72434 -65.37021,6.94269 -38.337649,13.38392 -73.567434,40.99017 -96.131677,75.32927 L 3.5703405,841.48502 2.8560548,751.02596 C 2.1860788,666.17839 2.1061491,521.44576 2.629767,341.27556 l 0.2262878,-77.86275 17.5000002,-5.56968 c 13.806161,-4.39406 30.767663,-12.2758 80.357145,-37.3407 67.34325,-34.03851 84.94527,-42.10389 110.71428,-50.73015 54.1062,-18.11222 120.24945,-19.3677 174.28572,-3.30816 38.99353,11.58885 64.36968,23.62952 119.02317,56.47501 65.44557,39.33128 75.06874,42.60431 125.26254,42.60431 36.89757,0 54.88292,-3.58893 82.45936,-16.45458 34.90459,-16.28457 60.95283,-39.05128 83.3666,-72.86415 4.92731,-7.43323 9.17013,-13.51497 9.42849,-13.51497 1.0623,0 -2.07499,588.72532 -3.14299,589.7933 -0.39466,0.39466 -4.14126,-0.36167 -8.32577,-1.68072 -5.59006,-1.76212 -12.8397,-2.39829 -27.33002,-2.39829 H 746.7328 l -20.15266,9.7359 c -11.08396,5.35474 -38.97384,19.87077 -61.97753,32.25783 -67.13944,36.15336 -91.49008,46.97578 -124.6037,55.37904 -13.76578,3.49336 -21.0595,4.38632 -45,5.50933 -46.72021,2.19157 -53.1045,1.87221 -74.28571,-3.71587 z"
         id="path2018"
         transform="matrix(0.75000002,0,0,0.75000002,36.221832,-0.87825231)" />
      <path
         style="fill:#5edfff;fill-opacity:0.298039;stroke:#a20000;stroke-width:0;stroke-opacity:0.658824"
         d="m 430.7132,849.85052 c -14.47762,-3.31692 -42.90434,-11.95978 -55,-16.7222 -23.10182,-9.09589 -48.88695,-23.2066 -94.28572,-51.5971 -55.00063,-34.39513 -63.19655,-37.34865 -106.69271,-38.44833 -40.6503,-1.02773 -54.53237,1.36113 -81.798884,14.07615 -30.253131,14.10775 -59.547974,39.20172 -77.78842,66.63359 C 9.7881638,831.8525 4.8285885,838.80213 4.1261884,839.23623 3.3769388,839.6993 2.9981478,720.89254 3.209719,551.78812 L 3.5703405,263.5507 20.713198,257.8382 c 12.201854,-4.06602 35.877494,-15.05367 82.142852,-38.12177 65.93156,-32.87375 84.02,-41.2188 105.5594,-48.69952 50.76122,-17.62957 112.42612,-20.37631 165.75439,-7.38318 34.23713,8.34167 71.59584,24.37349 109.4005,46.94725 88.22653,52.68146 90.1116,53.42358 138.57143,54.55306 43.38324,1.01116 60.25504,-1.98741 90.37337,-16.06178 31.53029,-14.73418 59.43539,-38.14017 78.91234,-66.1894 5.10715,-7.35492 10.41618,-14.74198 11.79785,-16.4157 2.40011,-2.90744 2.4799,2.37145 1.78941,118.38544 -0.39748,66.78572 -1.06951,197.28572 -1.4934,290 -0.65347,142.93466 -1.16741,177.95426 -2.60998,177.84169 -0.109,-0.009 -3.3539,-0.9728 -7.21092,-2.14286 -4.79998,-1.45613 -13.43001,-2.1274 -27.35044,-2.1274 h -20.33769 l -22.64955,11.22829 c -12.45726,6.17557 -40.66135,20.85988 -62.67575,32.63181 -57.42754,30.7087 -81.22485,41.67757 -108.2211,49.88223 -19.76251,6.0062 -31.90123,7.7227 -64.60985,9.1363 -40.48196,1.74956 -43.50323,1.67277 -57.14286,-1.45214 z"
         id="path2020"
         transform="matrix(0.75000002,0,0,0.75000002,36.221832,-0.87825231)" />
      <path
         style="fill:#5edfff;fill-opacity:0.298039;stroke:#a20000;stroke-width:0;stroke-opacity:0.658824"
         d="M 440.7132,851.75357 C 432.15626,850.49934 397.82713,840.96092 384.43511,836.11656 356.8782,826.14829 336.13228,815.15264 282.14177,781.89959 221.52951,744.56816 218.76614,743.64 167.85605,743.51307 c -41.00729,-0.10228 -48.24071,1.15636 -72.916052,12.68722 -34.263803,16.01155 -60.835575,38.89051 -81.793303,70.42607 l -8.147783,12.26016 -0.8382975,-4.8741 C 3.6995508,831.33166 3.3781223,701.92352 3.4463288,546.43876 L 3.5703405,263.7392 20.713198,257.90662 c 11.516798,-3.9184 37.577294,-15.98722 79.407512,-36.77423 85.66479,-42.57008 102.5003,-49.77805 134.21567,-57.46321 42.33422,-10.2583 95.34069,-10.62356 135.66253,-0.93485 39.4769,9.48568 71.46365,23.31048 120,51.86446 10.60715,6.24019 26.8269,15.78253 36.04392,21.2052 42.13637,24.79022 53.77914,28.34368 96.09894,29.33005 43.48614,1.01356 60.69037,-2.05365 90.65254,-16.16173 31.59085,-14.87497 59.23402,-38.3301 80.06175,-67.93212 8.16532,-11.60522 10.95667,-14.66242 11.73314,-12.85065 0.56038,1.30754 0.72331,45.7702 0.36208,98.80592 -0.36122,53.03571 -0.9988,178.39286 -1.41684,278.57143 -0.64694,155.03063 -1.30014,205.06631 -2.69886,206.73333 -0.14071,0.16761 -3.38144,-0.63596 -7.2018,-1.78572 -4.70221,-1.41516 -13.5695,-2.09047 -27.44921,-2.09047 h -20.50311 l -24.19932,12.11549 c -13.30963,6.66352 -37.43544,19.20838 -53.61291,27.87745 -91.514,49.0399 -120.14509,59.70499 -166.44175,61.99959 -27.6368,1.36977 -56.19954,1.99876 -60.71428,1.33701 z"
         id="path2022"
         transform="matrix(0.75000002,0,0,0.75000002,36.221832,-0.87825231)" />
      <path
         style="fill:#5edfff;fill-opacity:0.298039;stroke:#a20000;stroke-width:0;stroke-opacity:0.658824"
         d="m 438.45518,851.16626 c -8.81565,-1.3574 -25.46752,-5.92789 -47.0277,-12.90786 -29.297,-9.4847 -53.87822,-22.53933 -129.78297,-68.92527 -19.4772,-11.90266 -34.8132,-19.28134 -47.17478,-22.69744 -9.75515,-2.69583 -14.72373,-3.01479 -47.32796,-3.03835 -42.16376,-0.0305 -48.10695,1.03609 -73.580491,13.20455 -33.850367,16.16995 -59.615087,38.53913 -80.414584,69.81667 L 4.998912,838.8709 4.2846263,818.29033 C 3.1583351,785.8387 2.6494668,311.72597 3.7135407,286.20957 l 0.9561646,-22.92875 16.4460797,-5.5529 C 31.637332,254.17539 57.170726,242.44273 91.994673,225.15887 194.67687,174.19554 213.1649,166.74886 254.28463,159.7911 c 20.46112,-3.46217 61.83132,-4.83783 81.42857,-2.7077 33.9789,3.69334 72.26066,15.24281 107.74127,32.50513 12.63516,6.14736 39.6873,21.03268 60.11587,33.07849 66.23146,39.05371 72.78187,41.39977 118.57143,42.46702 43.48614,1.01356 60.69037,-2.05365 90.65254,-16.16173 31.00139,-14.59741 57.97989,-37.3272 79.38217,-66.88067 10.20849,-14.09645 11.40163,-15.27952 12.24628,-12.14286 0.51471,1.91139 0.72261,31.76096 0.46202,66.33239 -0.26058,34.57143 -0.88172,157.20456 -1.38031,272.51807 -0.49859,115.3135 -1.1207,210.77779 -1.38246,212.14286 -0.26175,1.36506 -0.52511,9.01303 -0.58523,16.99549 l -0.1093,14.51355 -7.5,-1.9966 c -4.73531,-1.2606 -15.00942,-2.00285 -27.87142,-2.01355 l -20.37143,-0.017 -26.77143,13.42146 c -14.72429,7.3818 -37.7,19.33375 -51.05714,26.55991 -34.38576,18.60252 -81.89158,41.72203 -97.92663,47.65763 -28.11583,10.4075 -44.68069,13.39851 -80.6448,14.56159 -13.35715,0.43197 -28.78572,0.95725 -34.28572,1.1673 -5.5,0.21005 -12.94467,-0.0714 -16.54373,-0.62566 z"
         id="path2024"
         transform="matrix(0.75000002,0,0,0.75000002,36.221832,-0.87825231)" />
      <path
         style="fill:#5edfff;fill-opacity:0.298039;stroke:#a20000;stroke-width:0;stroke-opacity:0.658824"
         d="m 440.64604,851.03564 c -20.06667,-2.26478 -61.2031,-15.70557 -87.4135,-28.56122 -9.61437,-4.71565 -37.25723,-20.47222 -61.42857,-35.0146 -74.03303,-44.54103 -72.06586,-43.84909 -124.6622,-43.84909 -41.72489,0 -47.33112,0.96743 -71.760548,12.38337 -34.485156,16.115 -61.328166,39.1938 -82.36403,70.81407 l -8.01828,12.05276 -0.7142857,-34.8613 C 3.443837,762.9642 3.1166835,300.3764 3.912862,278.33312 l 0.5450667,-15.09091 12.4133493,-4.01209 c 15.963158,-5.15941 32.697758,-12.88718 101.699062,-46.96301 31.03571,-15.32678 65.42857,-31.39955 76.42857,-35.71726 35.28753,-13.85105 63.5167,-19.31703 104.28572,-20.19273 30.85327,-0.66271 49.42453,1.35737 76.63327,8.33575 39.52501,10.1372 67.9597,23.05676 127.52463,57.94202 68.40634,40.06339 72.75135,41.58602 120.8421,42.34714 44.02263,0.69674 58.74105,-1.96406 88.50968,-16.00076 31.11137,-14.66984 59.24779,-38.43175 79.86037,-67.44411 5.76139,-8.1092 10.81503,-14.40424 11.23029,-13.98897 0.7382,0.73819 0.4577,302.07365 -0.32063,344.44727 -0.21648,11.78571 -0.59386,63.85714 -0.8386,115.71428 -0.24476,51.85715 -0.67698,101.12769 -0.96053,109.4901 l -0.51551,15.2044 -7.41112,-1.97315 c -4.63734,-1.23466 -15.03644,-1.97949 -27.78504,-1.9901 l -20.37394,-0.017 -23.19749,11.60924 c -12.75861,6.38509 -38.62605,19.79349 -57.4832,29.79645 -77.25524,40.98081 -105.1557,52.67362 -137.95868,57.81714 -16.91817,2.65277 -73.31512,4.86493 -86.39419,3.38878 z"
         id="path2026"
         transform="matrix(0.75000002,0,0,0.75000002,36.221832,-0.87825231)" />
      <path
         style="fill:#5edfff;fill-opacity:0.298039;stroke:#a20000;stroke-width:0;stroke-opacity:0.658824"
         d="m 440.7132,851.09804 c -20.70486,-2.4551 -63.242,-16.56514 -89.2534,-29.60634 -10.62492,-5.32696 -38.60375,-21.2963 -62.17517,-35.48744 -67.676,-40.7442 -69.70466,-41.51953 -112.14286,-42.85986 -31.07056,-0.9813 -51.4362,0.94804 -66.27898,6.27896 -37.675271,13.53141 -73.416354,41.31847 -95.891197,74.55101 L 4.998912,838.72053 4.2846263,803.92942 C 3.4455893,763.06199 3.1234135,298.67762 3.9194875,277.61802 l 0.5434816,-14.37745 12.4108289,-4.03744 c 15.549821,-5.0586 35.970391,-14.43993 93.861172,-43.12038 25.15484,-12.4623 49.26198,-24.22556 53.57143,-26.14059 4.30945,-1.91502 12.97823,-5.84978 19.26394,-8.74391 53.09609,-24.44697 124.43293,-31.89331 182.63934,-19.0644 41.21416,9.08375 75.41222,24.1634 137.36066,60.56921 56.01784,32.92053 68.91633,38.5854 94.28572,41.40926 17.01028,1.89341 49.69454,1.83247 65.71428,-0.12251 46.60112,-5.68705 95.99259,-36.95418 127.8308,-80.92292 5.83167,-8.05357 11.22006,-14.64286 11.97417,-14.64286 1.239,0 0.0166,543.18503 -1.2442,552.85714 -0.25604,1.96429 -0.5191,9.7811 -0.58458,17.3707 l -0.119,13.79927 -7.5,-1.9966 c -4.7356,-1.26068 -15.00993,-2.00285 -27.875,-2.01355 l -20.37503,-0.017 -21.76787,10.89124 c -11.97232,5.99019 -39.39059,20.19289 -60.92949,31.56155 -98.0499,51.75272 -117.20466,58.13544 -179.4098,59.7827 -16.5,0.43692 -30.96428,0.94302 -32.14286,1.12465 -1.17857,0.18163 -6,-0.12714 -10.71428,-0.68613 z"
         id="path2028"
         transform="matrix(0.75000002,0,0,0.75000002,36.221832,-0.87825231)" />
      <path
         style="fill:#5edfff;fill-opacity:0.298039;stroke:#a20000;stroke-width:0;stroke-opacity:0.658824"
         d="m 419.28463,846.43427 c -43.99245,-12.05223 -68.28426,-23.34878 -130,-60.45463 -71.43828,-42.9514 -69.52372,-42.28632 -122.14286,-42.42967 -33.92195,-0.0924 -37.21496,0.127 -47.85714,3.18815 C 79.997129,758.03902 39.119351,788.27374 15.077865,823.81334 9.6513391,831.83517 4.9738614,838.16089 4.6834701,837.87049 3.817694,837.00472 3.3627045,293.23259 4.2147717,277.7141 l 0.7841403,-14.28136 14.285714,-5.06305 c 17.174866,-6.087 31.398615,-12.64828 92.142854,-42.50458 61.28849,-30.12381 77.46337,-37.49314 97.32003,-44.33929 48.06892,-16.57314 108.45103,-20.18052 156.7978,-9.36748 43.46342,9.72084 73.53353,22.91391 137.59719,60.36986 49.07974,28.69534 63.27127,35.70067 80.42784,39.70141 12.43849,2.90052 61.3126,4.14445 78.72949,2.00379 47.64231,-5.85559 97.86777,-37.51742 129.84194,-81.85159 5.5,-7.6261 10.58391,-13.88636 11.29759,-13.9117 1.06697,-0.0379 -0.15176,524.24303 -1.26679,544.95392 -0.1692,3.14286 -0.40607,13.20967 -0.52637,22.3707 l -0.21872,16.65641 -7.5,-1.9966 c -4.73537,-1.26062 -15.00952,-2.00285 -27.87217,-2.01355 l -20.37218,-0.017 -26.05639,13.0282 c -14.33103,7.16551 -36.02068,18.33043 -48.19926,24.81093 -110.93164,59.0292 -128.05328,64.36191 -207.85714,64.73924 -26.45167,0.125 -27.5794,0.009 -44.28571,-4.56813 z"
         id="path2030"
         transform="matrix(0.75000002,0,0,0.75000002,36.221832,-0.87825231)" />
      <path
         style="fill:#5edfff;fill-opacity:0.298039;stroke:#a20000;stroke-width:0;stroke-opacity:0.658824"
         d="m 435.7132,850.37424 c -49.18226,-10.06037 -82.54787,-25.41908 -167.40043,-77.057 -42.64327,-25.95101 -52.0274,-29.0594 -91.171,-30.19935 -31.58312,-0.91977 -51.31354,0.92918 -65.92533,6.17791 -37.120952,13.33427 -73.478122,41.23716 -95.224575,73.0816 -4.953877,7.25422 -9.6145912,13.18949 -10.3571436,13.18949 -0.8290467,0 -1.3946541,-28.80726 -1.4655524,-74.64286 C 4.1056674,719.87046 3.9255487,607.20974 3.7689051,510.56689 3.6122615,413.92403 3.8249315,318.79067 4.2415053,299.15942 l 0.7574067,-35.69319 16.428571,-5.89518 c 16.698673,-5.9921 27.257939,-10.90648 97.259247,-45.26538 64.24768,-31.53484 80.96354,-38.72382 106.83128,-45.9448 44.13802,-12.32114 101.52262,-13.49216 145.19519,-2.96294 28.06204,6.7656 44.94674,13.01596 75.71428,28.0278 19.39849,9.46474 24.20849,12.12437 64.9705,35.92452 41.87435,24.44962 55.34096,30.95722 72.17236,34.87648 12.40793,2.88924 59.54294,4.10765 77.85714,2.01256 47.49786,-5.4336 96.3325,-35.71258 129.76475,-80.45812 5.72381,-7.66071 11.09924,-13.92857 11.9454,-13.92857 1.09711,0 1.2391,75.51 0.49494,263.21429 -0.57393,144.76785 -1.22657,268.67857 -1.45033,275.35714 -0.22374,6.67857 -0.4851,19.31681 -0.58078,28.08499 l -0.17398,15.94212 -7.5,-1.9966 c -4.73515,-1.26057 -15.00915,-2.00285 -27.86955,-2.01355 l -20.36957,-0.017 -31.059,15.67994 c -17.08246,8.62397 -42.63045,21.81389 -56.7733,29.31092 -56.2341,29.80934 -84.06266,42.33937 -110.71429,49.85 -8.32026,2.34471 -10.56546,2.77938 -26.42857,5.11663 -10.7992,1.59112 -79.13172,3.19311 -85,1.99272 z"
         id="path2032"
         transform="matrix(0.75000002,0,0,0.75000002,36.221832,-0.87825231)" />
      <path
         style="fill:#5edfff;fill-opacity:0.298039;stroke:#a20000;stroke-width:0;stroke-opacity:0.658824"
         d="m 434.28463,850.38372 c -1.96429,-0.39673 -12.5473,-3.27219 -23.51782,-6.38992 -41.51934,-11.79946 -59.37364,-20.58027 -135.7679,-66.77118 -14.92857,-9.0264 -32.9584,-19.17759 -40.0663,-22.55822 -21.16944,-10.06851 -27.47467,-11.09333 -68.50513,-11.13436 -41.82233,-0.0418 -47.5204,1.05 -74.488432,14.27282 -30.291509,14.85236 -58.0485,38.48061 -76.007897,64.70203 -4.920484,7.1841 -9.5538772,13.062 -10.2964296,13.062 -0.8243883,0 -1.3803284,-22.66777 -1.4277389,-58.21429 C 4.1642784,745.33474 3.9955464,631.38832 3.8320223,524.13832 3.6684983,416.88832 3.7257384,314.34762 3.9592227,296.27011 L 4.3837395,263.4019 17.578176,258.88781 c 16.526736,-5.65413 37.175143,-15.16251 99.967654,-46.03409 27.32938,-13.43633 49.92627,-24.42969 50.2153,-24.42969 0.28902,0 5.89291,-2.49963 12.45308,-5.55473 39.54459,-18.41614 77.4646,-26.37158 125.49899,-26.3291 32.0035,0.0283 48.69563,2.17013 76.72107,9.84434 35.3578,9.68203 65.57621,23.8451 126.13607,59.11872 55.81376,32.50921 63.72874,35.86097 91.5667,38.77577 19.82057,2.07533 61.26497,0.9427 74.88412,-2.0465 44.13704,-9.68745 84.51545,-36.92658 115.61654,-77.99453 5.9918,-7.91197 11.61546,-14.3854 12.49701,-14.3854 2.36216,0 0.0704,579.57457 -2.30305,582.44762 -0.13843,0.16761 -3.37752,-0.63596 -7.19788,-1.78572 -4.70197,-1.41508 -13.56907,-2.09047 -27.44577,-2.09047 h -20.49965 l -31.059,15.67669 c -17.08246,8.62218 -42.63045,21.8219 -56.7733,29.3327 -71.24472,37.83574 -100.1627,49.6274 -133.57143,54.46532 -13.45133,1.94789 -83.13309,3.87186 -90,2.48498 z"
         id="path2034"
         transform="matrix(0.75000002,0,0,0.75000002,36.221832,-0.87825231)" />
      <path
         style="fill:#5edfff;fill-opacity:0.298039;stroke:#a20000;stroke-width:0;stroke-opacity:0.658824"
         d="M 420.5273,846.95572 C 378.17078,835.78983 352.95337,824.0645 289.28463,785.9319 219.39697,744.07466 218.23721,743.67 167.85605,743.56429 c -38.19501,-0.0802 -45.00259,0.9406 -66.47248,9.96698 -35.580389,14.95872 -65.290194,39.5977 -88.138792,73.09542 -4.4170697,6.47574 -8.302755,11.50235 -8.6348562,11.17025 C 3.8510905,837.03812 3.1923074,297.19772 3.926238,277.55158 l 0.539587,-14.44387 5.980829,-1.77886 c 14.916499,-4.43655 36.091939,-13.97582 95.489426,-43.0168 67.35535,-32.93179 85.21263,-41.02361 106.44257,-48.23324 35.49256,-12.05318 89.02635,-17.13211 129.04883,-12.24331 18.96173,2.31621 46.43948,9.20283 67.5801,16.93728 25.95728,9.49667 52.29012,22.95288 101.70562,51.97207 32.57347,19.12872 53.05538,29.58622 64.93811,33.15561 23.81823,7.15462 80.15823,7.53529 106.13026,0.71709 41.26233,-10.83222 80.71351,-38.83226 109.80277,-77.9313 5.80659,-7.80466 11.14437,-14.20648 11.86174,-14.22626 2.09012,-0.0576 -0.44045,581.19157 -2.54155,583.77548 -0.10729,0.132 -3.7094,-0.67155 -8.00457,-1.78571 -4.91469,-1.27484 -15.13826,-2.02573 -27.58125,-2.02573 h -19.77183 l -23.84541,12.0524 c -13.11499,6.62881 -40.5597,20.90026 -60.98827,31.71431 -63.91687,33.83498 -97.6309,48.36519 -125.26246,53.98612 -14.92944,3.03701 -45.4707,5.09038 -74.73754,5.02483 -22.19887,-0.0497 -25.652,-0.41459 -40.1859,-4.24597 z"
         id="path2036"
         transform="matrix(0.75000002,0,0,0.75000002,36.221832,-0.87825231)" />
      <path
         style="fill:#5edfff;fill-opacity:0.298039;stroke:#a20000;stroke-width:0;stroke-opacity:0.658824"
         d="m 427.86687,849.01647 c -5.49404,-1.23661 -19.95833,-5.51891 -32.14286,-9.51623 -27.66683,-9.07651 -57.65725,-24.13464 -106.43938,-53.44298 -45.20518,-27.15932 -55.05446,-32.54234 -67.49559,-36.889 -23.75796,-8.30054 -81.89906,-8.6943 -107.01768,-0.72477 -37.478548,11.89104 -74.014289,39.2917 -98.567602,73.92261 -5.158173,7.27527 -9.9501395,13.58107 -10.648814,14.01287 C 4.8215654,836.83223 4.2124818,809.50322 4.1139433,771.72263 3.6119338,579.24753 3.5229508,290.13038 3.9618498,277.55158 l 0.5039752,-14.44387 5.980829,-1.77886 c 14.879804,-4.42563 35.998909,-13.93006 94.397746,-42.48269 71.81071,-35.11004 82.77114,-40.11068 104.44023,-47.65041 30.80607,-10.71892 73.85061,-16.63084 108.90907,-14.95802 22.4963,1.07341 33.76523,2.62302 53.94807,7.41847 40.56539,9.63834 71.3136,23.72174 141.42857,64.77759 31.98807,18.73062 52.63857,29.03276 64.36754,32.11173 27.90328,7.32489 80.71066,6.56322 109.02705,-1.57255 19.52034,-5.60853 48.85518,-21.10399 65.17684,-34.42818 10.59001,-8.64517 28.96656,-27.93921 37.91266,-39.80555 5.37818,-7.13377 10.8841,-13.88377 12.23535,-15 2.32246,-1.9185 2.4032,12.46352 1.4764,262.9705 -0.8518,230.23592 -1.684,318.1343 -3.0267,319.68283 -0.18937,0.21842 -2.20132,-0.36203 -4.47101,-1.28987 -2.2915,-0.93676 -14.34476,-1.97953 -27.10347,-2.34483 l -22.97676,-0.65783 -24.88038,12.56448 c -13.6842,6.91047 -32.91609,16.84072 -42.73752,22.06724 -58.5855,31.17654 -89.21144,46.05998 -111.75254,54.30894 -27.67129,10.12636 -45.01492,12.66566 -92.53317,13.54786 -29.79267,0.55311 -38.24822,0.26674 -46.41776,-1.57209 z"
         id="path2038"
         transform="matrix(0.75000002,0,0,0.75000002,36.221832,-0.87825231)" />
      <path
         style="fill:#5edfff;fill-opacity:0.298039;stroke:#a20000;stroke-width:0;stroke-opacity:0.658824"
         d="m 428.11477,849.06657 c -5.3577,-1.20905 -19.70284,-5.42367 -31.87807,-9.3658 -28.10839,-9.10101 -57.27602,-23.82467 -111.98546,-56.52963 -44.66981,-26.70334 -49.12567,-29.15817 -60.25771,-33.19737 -12.4129,-4.50397 -21.82439,-5.868 -46.74648,-6.77507 -28.17247,-1.02538 -49.81,0.9864 -64.6412,6.01012 -35.148341,11.90564 -71.152854,38.63548 -93.493254,69.40961 -4.619668,6.36364 -9.8255117,13.2625 -11.5685395,15.33079 l -3.169141,3.76052 -0.1683158,-37.14285 C 3.6516543,678.10513 3.4237497,289.62357 3.8997308,277.48437 4.4630637,263.11739 4.5068165,262.96381 8.3052418,262.01964 19.773535,259.16897 48.720723,246.21645 104.99891,218.75373 c 34.57143,-16.87022 68.64286,-33.24644 75.71429,-36.39159 65.83721,-29.2824 141.42145,-34.55272 207.85714,-14.4934 36.11477,10.90434 56.04199,20.63232 132.67486,64.76866 52.29861,30.12114 58.17374,31.86445 108.03943,32.05821 37.30314,0.14494 47.83733,-1.37314 70,-10.08769 26.15503,-10.28438 46.78905,-23.69323 67.64437,-43.95814 8.13298,-7.90273 18.80046,-19.83289 23.70551,-26.51146 4.90506,-6.67858 10.08647,-13.10715 11.51426,-14.28572 2.50791,-2.07017 2.56226,6.89468 1.60207,264.28572 -0.87503,234.56591 -1.6451,316.85072 -2.97843,318.25425 -0.20748,0.21842 -2.23425,-0.36203 -4.50394,-1.28987 -2.29574,-0.93848 -14.38473,-1.98038 -27.24664,-2.34828 l -23.11996,-0.66129 -33.30861,17.16753 c -18.31975,9.44214 -42.63006,22.10521 -54.02292,28.14018 -69.1631,36.63668 -101.04643,49.62475 -133.57143,54.41196 -21.93205,3.22809 -84.54483,4.03836 -96.88414,1.25377 z"
         id="path2040"
         transform="matrix(0.75000002,0,0,0.75000002,36.221832,-0.87825231)" />
      <path
         style="fill:#5edfff;fill-opacity:0.298039;stroke:#a20000;stroke-width:0;stroke-opacity:0.658824"
         d="m 428.11477,849.06657 c -5.3577,-1.20905 -19.74097,-5.43601 -31.96281,-9.39324 -28.1799,-9.12416 -56.79959,-23.61169 -112.58162,-56.98974 -59.51037,-35.60897 -65.31437,-37.77222 -105.71429,-39.40132 -26.39714,-1.06443 -48.29498,0.7571 -62.87115,5.22983 -14.76037,4.52926 -36.841001,15.8203 -51.330205,26.24796 -20.102746,14.46764 -33.586216,28.62628 -54.2553117,56.97208 -2.1860965,2.99803 -4.2812926,5.1444 -4.6559915,4.7697 C 3.8512423,835.60969 2.9636043,288.15861 3.8313108,273.97552 l 0.6654483,-10.87708 5.9653619,-1.76153 c 11.319562,-3.34259 36.056901,-14.0681 65.251077,-28.2913 16.107143,-7.84728 43.846272,-21.37505 61.642512,-30.06171 63.68912,-31.08778 85.25119,-38.74136 123.38502,-43.79619 58.44168,-7.74673 105.60383,-1.83529 159.97247,20.05143 16.59033,6.67862 41.31123,19.37041 70.71428,36.30492 68.14273,39.2464 74.72175,42.49065 94.82185,46.75865 16.83237,3.57414 70.8677,3.52052 88.0353,-0.0874 42.65744,-8.96473 85.7882,-37.90498 116.11935,-77.91476 5.67008,-7.47939 10.95208,-13.4671 11.73779,-13.30603 2.52717,0.51807 1.24907,578.79944 -1.28486,581.33337 -0.25395,0.25396 -2.31875,-0.29739 -4.58844,-1.22523 -2.29784,-0.93936 -14.4048,-1.98083 -27.31854,-2.35001 l -23.19185,-0.66303 -47.52244,24.76314 c -142.44773,74.22709 -148.96603,76.50502 -222.52244,77.76407 -30.68437,0.52523 -39.70282,0.23149 -47.59843,-1.5503 z"
         id="path2042"
         transform="matrix(0.75000002,0,0,0.75000002,36.221832,-0.87825231)" />
      <path
         style="fill:#5edfff;fill-opacity:0;stroke:#a20000;stroke-width:0;stroke-opacity:0.658824"
         d="m 428.57034,849.05169 c -11.67506,-2.51759 -43.67363,-12.62095 -55,-17.36595 -21.0539,-8.82017 -40.8152,-19.58134 -90.07723,-49.05224 -58.27896,-34.86526 -62.39764,-36.49674 -98.1778,-38.88996 -28.18824,-1.88541 -54.45995,-0.10542 -70.3164,4.76413 -14.15013,4.34555 -40.837478,18.32735 -54.285712,28.4409 -6.285715,4.72709 -16.130553,13.26072 -21.877419,18.96365 C 28.721011,805.94964 24.292596,811.29387 11.50739,828.89219 8.1807994,833.4711 5.1451684,836.90362 4.761543,836.52 3.8435371,835.60199 2.922411,284.76021 3.8187308,272.70974 l 0.6906762,-9.28571 15.244752,-5.50382 c 15.188829,-5.48362 43.907432,-18.88251 113.101891,-52.76858 60.35303,-29.55621 78.64345,-36.71165 110,-43.03338 49.49105,-9.97778 100.49546,-7.84571 146.97953,6.144 32.01109,9.63395 61.9723,24.00325 118.02048,56.60221 37.6351,21.88948 55.20901,30.84568 68.45208,34.88528 21.57717,6.58179 74.79792,7.39328 101.26844,1.54409 40.53048,-8.95601 80.9754,-36.37418 111.54035,-75.61472 6.37794,-8.18828 12.23913,-14.77614 13.02484,-14.63969 2.50936,0.4358 1.24017,578.7635 -1.27567,581.27932 -0.25902,0.25902 -2.32794,-0.2882 -4.59763,-1.21604 -2.29787,-0.93936 -14.40511,-1.98083 -27.31963,-2.35004 l -23.19293,-0.66306 -44.66421,23.248 c -80.75242,42.03213 -95.89067,49.67546 -113.96134,57.53927 -19.6025,8.53042 -36.78633,14.32012 -52.03245,17.53117 -22.64374,4.7691 -89.0308,6.4166 -106.52757,2.64365 z"
         id="path2044"
         transform="matrix(0.75000002,0,0,0.75000002,36.221832,-0.87825231)" />
      <path
         style="fill:#5edfff;fill-opacity:0;stroke:#a20000;stroke-width:0;stroke-opacity:0.658824"
         d="m 428.57034,849.05169 c -11.67506,-2.51759 -43.67363,-12.62095 -55,-17.36595 -21.0539,-8.82017 -40.8152,-19.58134 -90.07723,-49.05224 -58.27896,-34.86526 -62.39764,-36.49674 -98.1778,-38.88996 -28.18824,-1.88541 -54.45995,-0.10542 -70.3164,4.76413 -14.15013,4.34555 -40.837478,18.32735 -54.285712,28.4409 -6.285715,4.72709 -16.130553,13.26072 -21.877419,18.96365 C 28.721011,805.94964 24.292596,811.29387 11.50739,828.89219 8.1807994,833.4711 5.1451684,836.90362 4.761543,836.52 3.8435371,835.60199 2.922411,284.76021 3.8187308,272.70974 l 0.6906762,-9.28571 15.244752,-5.50382 c 15.188829,-5.48362 43.907432,-18.88251 113.101891,-52.76858 60.35303,-29.55621 78.64345,-36.71165 110,-43.03338 49.49105,-9.97778 100.49546,-7.84571 146.97953,6.144 32.01109,9.63395 61.9723,24.00325 118.02048,56.60221 37.6351,21.88948 55.20901,30.84568 68.45208,34.88528 21.57717,6.58179 74.79792,7.39328 101.26844,1.54409 40.53048,-8.95601 80.9754,-36.37418 111.54035,-75.61472 6.37794,-8.18828 12.23913,-14.77614 13.02484,-14.63969 2.50936,0.4358 1.24017,578.7635 -1.27567,581.27932 -0.25902,0.25902 -2.32794,-0.2882 -4.59763,-1.21604 -2.29787,-0.93936 -14.40511,-1.98083 -27.31963,-2.35004 l -23.19293,-0.66306 -44.66421,23.248 c -80.75242,42.03213 -95.89067,49.67546 -113.96134,57.53927 -19.6025,8.53042 -36.78633,14.32012 -52.03245,17.53117 -22.64374,4.7691 -89.0308,6.4166 -106.52757,2.64365 z"
         id="path2046"
         transform="matrix(0.75000002,0,0,0.75000002,36.221832,-0.87825231)" />
      <path
         style="fill:#5edfff;fill-opacity:0;stroke:#a20000;stroke-width:0;stroke-opacity:0.658824"
         d="m 428.57034,849.05169 c -11.67506,-2.51759 -43.67363,-12.62095 -55,-17.36595 -21.0539,-8.82017 -40.8152,-19.58134 -90.07723,-49.05224 -58.27896,-34.86526 -62.39764,-36.49674 -98.1778,-38.88996 -28.18824,-1.88541 -54.45995,-0.10542 -70.3164,4.76413 -14.15013,4.34555 -40.837478,18.32735 -54.285712,28.4409 -6.285715,4.72709 -16.130553,13.26072 -21.877419,18.96365 C 28.721011,805.94964 24.292596,811.29387 11.50739,828.89219 8.1807994,833.4711 5.1451684,836.90362 4.761543,836.52 3.8435371,835.60199 2.922411,284.76021 3.8187308,272.70974 l 0.6906762,-9.28571 15.244752,-5.50382 c 15.188829,-5.48362 43.907432,-18.88251 113.101891,-52.76858 60.35303,-29.55621 78.64345,-36.71165 110,-43.03338 49.49105,-9.97778 100.49546,-7.84571 146.97953,6.144 32.01109,9.63395 61.9723,24.00325 118.02048,56.60221 37.6351,21.88948 55.20901,30.84568 68.45208,34.88528 21.57717,6.58179 74.79792,7.39328 101.26844,1.54409 40.53048,-8.95601 80.9754,-36.37418 111.54035,-75.61472 6.37794,-8.18828 12.23913,-14.77614 13.02484,-14.63969 2.50936,0.4358 1.24017,578.7635 -1.27567,581.27932 -0.25902,0.25902 -2.32794,-0.2882 -4.59763,-1.21604 -2.29787,-0.93936 -14.40511,-1.98083 -27.31963,-2.35004 l -23.19293,-0.66306 -44.66421,23.248 c -80.75242,42.03213 -95.89067,49.67546 -113.96134,57.53927 -19.6025,8.53042 -36.78633,14.32012 -52.03245,17.53117 -22.64374,4.7691 -89.0308,6.4166 -106.52757,2.64365 z"
         id="path2048"
         transform="matrix(0.75000002,0,0,0.75000002,36.221832,-0.87825231)" />
      <path
         style="fill:#5edfff;fill-opacity:0;stroke:#a20000;stroke-width:0;stroke-opacity:0.658824"
         d="m 428.57034,849.05169 c -11.67506,-2.51759 -43.67363,-12.62095 -55,-17.36595 -21.0539,-8.82017 -40.8152,-19.58134 -90.07723,-49.05224 -58.27896,-34.86526 -62.39764,-36.49674 -98.1778,-38.88996 -28.18824,-1.88541 -54.45995,-0.10542 -70.3164,4.76413 -14.15013,4.34555 -40.837478,18.32735 -54.285712,28.4409 -6.285715,4.72709 -16.130553,13.26072 -21.877419,18.96365 C 28.721011,805.94964 24.292596,811.29387 11.50739,828.89219 8.1807994,833.4711 5.1451684,836.90362 4.761543,836.52 3.8435371,835.60199 2.922411,284.76021 3.8187308,272.70974 l 0.6906762,-9.28571 15.244752,-5.50382 c 15.188829,-5.48362 43.907432,-18.88251 113.101891,-52.76858 60.35303,-29.55621 78.64345,-36.71165 110,-43.03338 49.49105,-9.97778 100.49546,-7.84571 146.97953,6.144 32.01109,9.63395 61.9723,24.00325 118.02048,56.60221 37.6351,21.88948 55.20901,30.84568 68.45208,34.88528 21.57717,6.58179 74.79792,7.39328 101.26844,1.54409 40.53048,-8.95601 80.9754,-36.37418 111.54035,-75.61472 6.37794,-8.18828 12.23913,-14.77614 13.02484,-14.63969 2.50936,0.4358 1.24017,578.7635 -1.27567,581.27932 -0.25902,0.25902 -2.32794,-0.2882 -4.59763,-1.21604 -2.29787,-0.93936 -14.40511,-1.98083 -27.31963,-2.35004 l -23.19293,-0.66306 -44.66421,23.248 c -80.75242,42.03213 -95.89067,49.67546 -113.96134,57.53927 -19.6025,8.53042 -36.78633,14.32012 -52.03245,17.53117 -22.64374,4.7691 -89.0308,6.4166 -106.52757,2.64365 z"
         id="path2050"
         transform="matrix(0.75000002,0,0,0.75000002,36.221832,-0.87825231)" />
      <path
         style="fill:#5edfff;fill-opacity:0;stroke:#a20000;stroke-width:0;stroke-opacity:0.658824"
         d="m 428.57034,849.05169 c -11.67506,-2.51759 -43.67363,-12.62095 -55,-17.36595 -21.0539,-8.82017 -40.8152,-19.58134 -90.07723,-49.05224 -58.27896,-34.86526 -62.39764,-36.49674 -98.1778,-38.88996 -28.18824,-1.88541 -54.45995,-0.10542 -70.3164,4.76413 -14.15013,4.34555 -40.837478,18.32735 -54.285712,28.4409 -6.285715,4.72709 -16.130553,13.26072 -21.877419,18.96365 C 28.721011,805.94964 24.292596,811.29387 11.50739,828.89219 8.1807994,833.4711 5.1451684,836.90362 4.761543,836.52 3.8435371,835.60199 2.922411,284.76021 3.8187308,272.70974 l 0.6906762,-9.28571 15.244752,-5.50382 c 15.188829,-5.48362 43.907432,-18.88251 113.101891,-52.76858 60.35303,-29.55621 78.64345,-36.71165 110,-43.03338 49.49105,-9.97778 100.49546,-7.84571 146.97953,6.144 32.01109,9.63395 61.9723,24.00325 118.02048,56.60221 37.6351,21.88948 55.20901,30.84568 68.45208,34.88528 21.57717,6.58179 74.79792,7.39328 101.26844,1.54409 40.53048,-8.95601 80.9754,-36.37418 111.54035,-75.61472 6.37794,-8.18828 12.23913,-14.77614 13.02484,-14.63969 2.50936,0.4358 1.24017,578.7635 -1.27567,581.27932 -0.25902,0.25902 -2.32794,-0.2882 -4.59763,-1.21604 -2.29787,-0.93936 -14.40511,-1.98083 -27.31963,-2.35004 l -23.19293,-0.66306 -44.66421,23.248 c -80.75242,42.03213 -95.89067,49.67546 -113.96134,57.53927 -19.6025,8.53042 -36.78633,14.32012 -52.03245,17.53117 -22.64374,4.7691 -89.0308,6.4166 -106.52757,2.64365 z"
         id="path2052"
         transform="matrix(0.75000002,0,0,0.75000002,36.221832,-0.87825231)" />
      <path
         style="fill:#5edfff;fill-opacity:0;stroke:#a20000;stroke-width:0;stroke-opacity:0.658824"
         d="m 428.57034,849.05169 c -11.67506,-2.51759 -43.67363,-12.62095 -55,-17.36595 -21.0539,-8.82017 -40.8152,-19.58134 -90.07723,-49.05224 -58.27896,-34.86526 -62.39764,-36.49674 -98.1778,-38.88996 -28.18824,-1.88541 -54.45995,-0.10542 -70.3164,4.76413 -14.15013,4.34555 -40.837478,18.32735 -54.285712,28.4409 -6.285715,4.72709 -16.130553,13.26072 -21.877419,18.96365 C 28.721011,805.94964 24.292596,811.29387 11.50739,828.89219 8.1807994,833.4711 5.1451684,836.90362 4.761543,836.52 3.8435371,835.60199 2.922411,284.76021 3.8187308,272.70974 l 0.6906762,-9.28571 15.244752,-5.50382 c 15.188829,-5.48362 43.907432,-18.88251 113.101891,-52.76858 60.35303,-29.55621 78.64345,-36.71165 110,-43.03338 49.49105,-9.97778 100.49546,-7.84571 146.97953,6.144 32.01109,9.63395 61.9723,24.00325 118.02048,56.60221 37.6351,21.88948 55.20901,30.84568 68.45208,34.88528 21.57717,6.58179 74.79792,7.39328 101.26844,1.54409 40.53048,-8.95601 80.9754,-36.37418 111.54035,-75.61472 6.37794,-8.18828 12.23913,-14.77614 13.02484,-14.63969 2.50936,0.4358 1.24017,578.7635 -1.27567,581.27932 -0.25902,0.25902 -2.32794,-0.2882 -4.59763,-1.21604 -2.29787,-0.93936 -14.40511,-1.98083 -27.31963,-2.35004 l -23.19293,-0.66306 -44.66421,23.248 c -80.75242,42.03213 -95.89067,49.67546 -113.96134,57.53927 -19.6025,8.53042 -36.78633,14.32012 -52.03245,17.53117 -22.64374,4.7691 -89.0308,6.4166 -106.52757,2.64365 z"
         id="path2054"
         transform="matrix(0.75000002,0,0,0.75000002,36.221832,-0.87825231)" />
      <path
         style="fill:#5edfff;fill-opacity:0;stroke:#a20000;stroke-width:0;stroke-opacity:0.658824"
         d="m 428.57034,849.05169 c -11.67506,-2.51759 -43.67363,-12.62095 -55,-17.36595 -21.0539,-8.82017 -40.8152,-19.58134 -90.07723,-49.05224 -58.27896,-34.86526 -62.39764,-36.49674 -98.1778,-38.88996 -28.18824,-1.88541 -54.45995,-0.10542 -70.3164,4.76413 -14.15013,4.34555 -40.837478,18.32735 -54.285712,28.4409 -6.285715,4.72709 -16.130553,13.26072 -21.877419,18.96365 C 28.721011,805.94964 24.292596,811.29387 11.50739,828.89219 8.1807994,833.4711 5.1451684,836.90362 4.761543,836.52 3.8435371,835.60199 2.922411,284.76021 3.8187308,272.70974 l 0.6906762,-9.28571 15.244752,-5.50382 c 15.188829,-5.48362 43.907432,-18.88251 113.101891,-52.76858 60.35303,-29.55621 78.64345,-36.71165 110,-43.03338 49.49105,-9.97778 100.49546,-7.84571 146.97953,6.144 32.01109,9.63395 61.9723,24.00325 118.02048,56.60221 37.6351,21.88948 55.20901,30.84568 68.45208,34.88528 21.57717,6.58179 74.79792,7.39328 101.26844,1.54409 40.53048,-8.95601 80.9754,-36.37418 111.54035,-75.61472 6.37794,-8.18828 12.23913,-14.77614 13.02484,-14.63969 2.50936,0.4358 1.24017,578.7635 -1.27567,581.27932 -0.25902,0.25902 -2.32794,-0.2882 -4.59763,-1.21604 -2.29787,-0.93936 -14.40511,-1.98083 -27.31963,-2.35004 l -23.19293,-0.66306 -44.66421,23.248 c -80.75242,42.03213 -95.89067,49.67546 -113.96134,57.53927 -19.6025,8.53042 -36.78633,14.32012 -52.03245,17.53117 -22.64374,4.7691 -89.0308,6.4166 -106.52757,2.64365 z"
         id="path2056"
         transform="matrix(0.75000002,0,0,0.75000002,36.221832,-0.87825231)" />
      <path
         style="fill:#b2fcff;fill-opacity:0;stroke:#a20000;stroke-width:0;stroke-opacity:0.658824"
         d="m 428.57034,849.05169 c -11.67506,-2.51759 -43.67363,-12.62095 -55,-17.36595 -21.0539,-8.82017 -40.8152,-19.58134 -90.07723,-49.05224 -58.27896,-34.86526 -62.39764,-36.49674 -98.1778,-38.88996 -28.18824,-1.88541 -54.45995,-0.10542 -70.3164,4.76413 -14.15013,4.34555 -40.837478,18.32735 -54.285712,28.4409 -6.285715,4.72709 -16.130553,13.26072 -21.877419,18.96365 C 28.721011,805.94964 24.292596,811.29387 11.50739,828.89219 8.1807994,833.4711 5.1451684,836.90362 4.761543,836.52 3.8435371,835.60199 2.922411,284.76021 3.8187308,272.70974 l 0.6906762,-9.28571 15.244752,-5.50382 c 15.188829,-5.48362 43.907432,-18.88251 113.101891,-52.76858 60.35303,-29.55621 78.64345,-36.71165 110,-43.03338 49.49105,-9.97778 100.49546,-7.84571 146.97953,6.144 32.01109,9.63395 61.9723,24.00325 118.02048,56.60221 37.6351,21.88948 55.20901,30.84568 68.45208,34.88528 21.57717,6.58179 74.79792,7.39328 101.26844,1.54409 40.53048,-8.95601 80.9754,-36.37418 111.54035,-75.61472 6.37794,-8.18828 12.23913,-14.77614 13.02484,-14.63969 2.50936,0.4358 1.24017,578.7635 -1.27567,581.27932 -0.25902,0.25902 -2.32794,-0.2882 -4.59763,-1.21604 -2.29787,-0.93936 -14.40511,-1.98083 -27.31963,-2.35004 l -22.52136,0.46361 -45.33578,22.12133 c -81.81629,39.92178 -95.89067,49.67546 -113.96134,57.53927 -19.6025,8.53042 -36.78633,14.32012 -52.03245,17.53117 -22.64374,4.7691 -89.0308,6.4166 -106.52757,2.64365 z"
         id="path2058"
         transform="matrix(0.75000002,0,0,0.75000002,36.221832,-0.87825231)"
         sodipodi:nodetypes="sssssssssscsssssssssssscssss" />
      <path
         style="fill:#b2fcff;fill-opacity:0;stroke:#a20000;stroke-width:0;stroke-opacity:0.658824"
         d="m 509.23687,221.61462 c -22.75471,-15.23291 -55.95025,-34.29238 -70.30939,-40.36868 l -7.5,-3.17375 V 130.48078 82.889374 l 5.35715,0.795474 c 10.81099,1.605307 60.17203,14.65729 78.21428,20.681322 l 18.57143,6.20072 0.372,63.21428 c 0.20461,34.76786 -0.11682,63.20362 -0.71428,63.19059 -0.59746,-0.0129 -11.39349,-6.92374 -23.99119,-15.35714 z"
         id="path2060"
         transform="matrix(0.75000002,0,0,0.75000002,36.221832,-0.87825231)" />
    </g>
  </g>
</svg>
